<?xml version="1.0" encoding="utf-8"?>
<!-- Generator: Adobe Illustrator 21.0.2, SVG Export Plug-In . SVG Version: 6.00 Build 0)  -->
<svg version="1.1" id="Layer_1" xmlns="http://www.w3.org/2000/svg" xmlns:xlink="http://www.w3.org/1999/xlink" x="0px" y="0px"
	 viewBox="0 0 142 40" style="enable-background:new 0 0 142 40;" xml:space="preserve">
<style type="text/css">
	.st0{fill:#FFFFFF;}
</style>
<g>
	<polygon class="st0" points="74.6,2.5 78.2,5.1 74.6,7.7 72.1,5.8 71.1,6.6 74.6,9.1 80.2,5.1 74.6,1 65.5,7.7 61.9,5.1 65.5,2.5 
		68,4.3 69,3.6 65.5,1 59.9,5.1 65.5,9.1 	"/>
	<path class="st0" d="M30.2,26.5c0-1.5-1-2.5-2.7-2.5h-6.2v7.9h1.3v-3h4l2.1,3h1.5l-2.1-3.1C29.3,28.7,30.2,27.9,30.2,26.5z
		 M22.6,27.7v-2.5h4.6c1.1,0,1.6,0.4,1.6,1.3c0,0.8-0.5,1.2-1.5,1.2H22.6z"/>
	<path class="st0" d="M7.7,29.4C7.7,30.6,7,31,5.5,31c-1.4,0-2-0.4-2.1-1.5H2.1c0.1,1.8,1.3,2.7,3.4,2.7c2.3,0,3.6-1,3.6-2.8V24H7.7
		V29.4z"/>
	<polygon class="st0" points="12.6,28.4 17.2,28.4 17.2,27.2 12.6,27.2 12.6,25.2 19.3,25.2 19.3,24 11.3,24 11.3,31.9 19.6,31.9 
		19.6,30.7 12.6,30.7 	"/>
	<polygon class="st0" points="21.5,14.3 25.2,14.3 25.2,21 26.6,21 26.6,14.3 30.3,14.3 30.3,13.1 21.5,13.1 	"/>
	<polygon class="st0" points="39.1,16.3 32.8,16.3 32.8,13.1 31.5,13.1 31.5,21 32.8,21 32.8,17.5 39.1,17.5 39.1,21 40.4,21 
		40.4,13.1 39.1,13.1 	"/>
	<path class="st0" d="M37.4,27.2c-1.6-0.2-2.9-0.1-3.8-0.4c-0.5-0.2-0.7-0.4-0.7-0.8c0-0.7,0.9-1.1,2.5-1.1c1.2,0,2.4,0.3,3.6,0.9
		l0.8-0.9c-1.1-0.8-2.6-1.2-4.3-1.2c-2.6,0-4,0.9-4,2.4c0,1.5,1.2,1.9,3.6,2.1c2.3,0.2,3.7,0.2,3.7,1.3c0,0.8-1,1.4-2.9,1.4
		c-1.4,0-2.7-0.4-4-1.1l-0.7,0.9c1.1,0.9,2.7,1.3,4.7,1.3c2.8,0,4.3-1,4.3-2.6C40.3,28.2,39.3,27.5,37.4,27.2z"/>
	<path class="st0" d="M92.9,20.1c-1.4,0-2.7-0.4-4-1.1l-0.7,0.9c1.1,0.9,2.7,1.3,4.7,1.3c2.8,0,4.3-1,4.3-2.6c0-1.3-0.9-2-2.9-2.2
		c-1.6-0.2-2.9-0.1-3.7-0.4c-0.5-0.2-0.7-0.4-0.7-0.8c0-0.7,0.9-1.1,2.5-1.1c1.2,0,2.4,0.3,3.6,0.9l0.8-0.9
		c-1.1-0.8-2.6-1.2-4.3-1.2c-2.5,0-4,0.9-4,2.4c0,1.5,1.2,1.9,3.6,2.1c2.3,0.2,3.6,0.2,3.6,1.3C95.8,19.5,94.8,20.1,92.9,20.1z"/>
	<polygon class="st0" points="87.9,19.8 81.8,19.8 81.8,13.2 80.5,13.2 80.5,21 87.9,21 	"/>
	<polygon class="st0" points="50.4,30.7 43.4,30.7 43.4,28.4 48,28.4 48,27.2 43.4,27.2 43.4,25.2 50.1,25.2 50.1,24 42.1,24 
		42.1,31.9 50.4,31.9 	"/>
	<polygon class="st0" points="113.6,21 114.9,21 114.9,14.3 118.6,14.3 118.6,13.1 109.8,13.1 109.8,14.3 113.6,14.3 	"/>
	<rect x="68.8" y="13.2" class="st0" width="1.3" height="7.9"/>
	<polygon class="st0" points="72.1,13.2 72.1,21 79.4,21 79.4,19.8 73.4,19.8 73.4,13.2 	"/>
	<polygon class="st0" points="50.7,19.8 43.7,19.8 43.7,17.5 48.3,17.5 48.3,16.3 43.7,16.3 43.7,14.3 50.4,14.3 50.4,13.1 
		42.4,13.1 42.4,21 50.7,21 	"/>
	<polygon class="st0" points="57.4,14.6 57.5,14.6 61.5,19.7 65.6,14.6 65.6,14.6 65.6,21 66.9,21 66.9,13.2 65.3,13.2 61.5,17.9 
		57.7,13.2 56.1,13.2 56.1,21 57.4,21 	"/>
	<polygon class="st0" points="54.8,28.8 54.8,31.9 56.1,31.9 56.1,28.8 60.5,24 58.8,24 55.5,27.7 52.1,24 50.5,24 	"/>
	<path class="st0" d="M103.3,19.3h5.3l0.9,1.8h1.4l-4.2-7.9h-1.6l-4.2,7.9h1.4L103.3,19.3z M105.9,14.3l2,3.8h-4L105.9,14.3z"/>
	<path class="st0" d="M101.6,24h-5v7.9h5.2c1.1,0,2.2-0.4,2.9-1c0.8-0.7,1.3-1.7,1.3-2.8C106,25.6,104.3,24,101.6,24z M101.9,30.7
		h-4v-5.5h3.8c1.8,0,2.9,1.1,2.9,2.8C104.6,29.6,103.5,30.7,101.9,30.7z"/>
	<polygon class="st0" points="108.9,28.4 113.5,28.4 113.5,27.2 108.9,27.2 108.9,25.2 115.5,25.2 115.5,24 107.6,24 107.6,31.9 
		115.8,31.9 115.8,30.7 108.9,30.7 	"/>
	<path class="st0" d="M74.4,27.8v-0.1h-5.3v1.2h3.7c-0.5,1.3-1.7,2-3.4,2c-2.2,0-3.7-1.2-3.7-3c0-0.9,0.4-1.7,1.2-2.2
		c0.6-0.5,1.5-0.7,2.5-0.7c1.3,0,2.4,0.5,3.2,1.3l1.2-0.6c-1.1-1.3-2.5-1.9-4.3-1.9c-1.4,0-2.7,0.4-3.6,1.1
		c-1.1,0.8-1.6,1.9-1.6,3.1c0,1.3,0.5,2.3,1.6,3.1c0.9,0.7,2.1,1.1,3.5,1.1C72.4,32.1,74.4,30.4,74.4,27.8z"/>
	<path class="st0" d="M83.2,31.9h1.4L80.5,24h-1.6l-4.2,7.9h1.4l0.9-1.8h5.3L83.2,31.9z M77.6,29l2-3.8l2,3.8H77.6z"/>
	<path class="st0" d="M94.7,26.5c0-1.5-1-2.5-2.7-2.5h-6.2v7.9h1.3v-3h4l2.1,3h1.5l-2.1-3.1C93.8,28.7,94.7,27.9,94.7,26.5z
		 M87.1,27.7v-2.5h4.6c1.1,0,1.6,0.4,1.6,1.3c0,0.8-0.5,1.2-1.5,1.2H87.1z"/>
	<path class="st0" d="M138.9,23.7c-0.6,0-1,0.5-1,1c0,0.6,0.5,1,1,1c0.6,0,1-0.5,1-1C139.9,24.1,139.4,23.7,138.9,23.7z M138.9,25.6
		c-0.5,0-0.9-0.4-0.9-0.9c0-0.5,0.4-0.9,0.9-0.9s0.9,0.4,0.9,0.9C139.7,25.2,139.4,25.6,138.9,25.6z"/>
	<polygon class="st0" points="125,30.5 119,24 117.4,24 117.4,31.9 118.7,31.9 118.7,25.5 124.7,31.9 126.3,31.9 126.3,24 125,24 	
		"/>
	<path class="st0" d="M139.3,24.5c0-0.2-0.1-0.3-0.3-0.3h-0.4v1.1h0.2v-0.5h0.2l0.3,0.5h0.2l-0.3-0.5
		C139.2,24.7,139.3,24.6,139.3,24.5z M138.9,24.7h-0.2v-0.4h0.2c0.1,0,0.2,0.1,0.2,0.2C139.1,24.6,139,24.7,138.9,24.7z"/>
	<path class="st0" d="M134,27.3c-1.6-0.2-2.9-0.1-3.7-0.4c-0.5-0.2-0.7-0.4-0.7-0.8c0-0.7,0.9-1.1,2.5-1.1c1.2,0,2.4,0.3,3.6,0.9
		l0.8-0.9c-1.1-0.8-2.6-1.2-4.3-1.2c-2.6,0-4,0.9-4,2.4c0,1.5,1.2,1.9,3.6,2.1c2.3,0.2,3.6,0.2,3.6,1.3c0,0.8-1,1.4-2.9,1.4
		c-1.4,0-2.7-0.4-4-1.1l-0.7,0.9c1.1,0.9,2.7,1.3,4.7,1.3c2.8,0,4.3-1,4.3-2.6C136.9,28.2,136,27.5,134,27.3z"/>
	<polygon class="st0" points="91.2,37.6 92.9,37.6 92.9,37.1 91.2,37.1 91.2,36.4 93.7,36.4 93.7,35.9 90.7,35.9 90.7,38.9 
		93.8,38.9 93.8,38.5 91.2,38.5 	"/>
	<path class="st0" d="M98.5,36.9c0-0.6-0.4-0.9-1-0.9h-2.4v3h0.5v-1.1h1.5l0.8,1.1h0.6l-0.8-1.2C98.2,37.7,98.5,37.4,98.5,36.9z
		 M95.6,37.3v-0.9h1.7c0.4,0,0.6,0.2,0.6,0.5c0,0.3-0.2,0.5-0.6,0.5H95.6z"/>
	<polygon class="st0" points="84.6,38.4 82.3,35.9 81.7,35.9 81.7,38.9 82.2,38.9 82.2,36.5 84.5,38.9 85.1,38.9 85.1,35.9 
		84.6,35.9 	"/>
	<path class="st0" d="M63.5,36.2c-0.3-0.3-0.8-0.4-1.3-0.4c-0.5,0-1,0.2-1.3,0.4c-0.4,0.3-0.6,0.7-0.6,1.2c0,0.5,0.2,0.9,0.6,1.2
		c0.3,0.2,0.8,0.4,1.3,0.4s1-0.1,1.3-0.4c0.4-0.3,0.6-0.7,0.6-1.2C64.1,36.9,63.9,36.5,63.5,36.2z M62.2,38.5
		c-0.9,0-1.4-0.5-1.4-1.1c0-0.7,0.6-1.1,1.4-1.1c0.4,0,0.7,0.1,1,0.3c0.3,0.2,0.4,0.5,0.4,0.8C63.6,38.1,63,38.5,62.2,38.5z"/>
	<rect x="52.6" y="35.9" class="st0" width="0.5" height="3"/>
	<polygon class="st0" points="56.8,37.7 55.3,35.9 54.7,35.9 54.7,38.9 55.2,38.9 55.2,36.5 55.2,36.5 56.8,38.4 58.3,36.5 
		58.3,36.5 58.3,38.9 58.8,38.9 58.8,35.9 58.2,35.9 	"/>
	<path class="st0" d="M50.2,37.1c-0.6-0.1-1.1,0-1.4-0.2c-0.2-0.1-0.3-0.2-0.3-0.3c0-0.2,0.3-0.4,0.9-0.4c0.5,0,0.9,0.1,1.4,0.3
		l0.3-0.3c-0.4-0.3-1-0.4-1.6-0.4c-1,0-1.5,0.4-1.5,0.9c0,0.6,0.5,0.7,1.4,0.8c0.9,0.1,1.4,0.1,1.4,0.5c0,0.3-0.4,0.5-1.1,0.5
		c-0.5,0-1-0.1-1.5-0.4l-0.3,0.4c0.4,0.3,1,0.5,1.8,0.5c1.1,0,1.6-0.4,1.6-1C51.3,37.5,50.9,37.2,50.2,37.1z"/>
	<path class="st0" d="M43,35.9l-1.6,3h0.5l0.3-0.7h2l0.3,0.7h0.5l-1.6-3H43z M42.5,37.8l0.8-1.4l0.8,1.4H42.5z"/>
	<polygon class="st0" points="77.7,37.6 79.5,37.6 79.5,37.1 77.7,37.1 77.7,36.4 80.2,36.4 80.2,35.9 77.2,35.9 77.2,38.9 
		80.4,38.9 80.4,38.5 77.7,38.5 	"/>
	<polygon class="st0" points="68.4,38.4 66.1,35.9 65.5,35.9 65.5,38.9 66,38.9 66,36.5 68.3,38.9 68.9,38.9 68.9,35.9 68.4,35.9 	
		"/>
	<polygon class="st0" points="86.2,36.4 87.6,36.4 87.6,38.9 88.1,38.9 88.1,36.4 89.5,36.4 89.5,35.9 86.2,35.9 	"/>
	<path class="st0" d="M74.1,36.3c0.5,0,1,0.1,1.3,0.5l0.4-0.2c-0.4-0.5-1-0.8-1.7-0.8c-0.5,0-1,0.1-1.3,0.4
		c-0.4,0.3-0.6,0.7-0.6,1.2c0,0.5,0.2,0.9,0.6,1.2c0.3,0.2,0.8,0.4,1.3,0.4c0.7,0,1.3-0.2,1.7-0.7l-0.4-0.2
		c-0.3,0.3-0.7,0.5-1.2,0.5c-0.9,0-1.4-0.5-1.4-1.1C72.7,36.8,73.3,36.3,74.1,36.3z"/>
</g>
</svg>
