<?xml version="1.0" encoding="iso-8859-1"?>
<!-- Generator: Adobe Illustrator 18.1.1, SVG Export Plug-In . SVG Version: 6.00 Build 0)  -->
<!DOCTYPE svg PUBLIC "-//W3C//DTD SVG 1.1//EN" "http://www.w3.org/Graphics/SVG/1.1/DTD/svg11.dtd">
<svg version="1.1" id="Layer_1" xmlns="http://www.w3.org/2000/svg" xmlns:xlink="http://www.w3.org/1999/xlink" x="0px" y="0px"
	 viewBox="0 0 234.967 40" style="enable-background:new 0 0 234.967 40;" xml:space="preserve">
<g>
	<polygon style="fill:#FFFFFF;" points="132.512,6.706 124.668,12.412 119.69,8.791 121.121,7.75 124.668,10.329 129.648,6.706 
		124.668,3.083 111.841,12.412 103.996,6.706 111.841,1 116.823,4.625 115.392,5.665 111.841,3.083 106.859,6.706 111.841,10.329 
		124.668,1 132.512,6.706 	"/>
	<path style="fill:#FFFFFF;" d="M23.356,18.025h-2.044l-2.776,9.245l-2.761-9.245h-2.318l-2.761,9.245l-2.776-9.245H5.874
		L9.52,29.07h2.334l2.761-9.229l2.761,9.229h2.365L23.356,18.025L23.356,18.025z M38.229,23.532c0-1.754-0.763-3.234-2.242-4.363
		c-1.221-0.931-2.96-1.495-4.836-1.495c-1.892,0-3.615,0.564-4.851,1.495c-1.495,1.129-2.258,2.593-2.258,4.363
		c0,1.8,0.747,3.264,2.227,4.378c1.205,0.915,2.959,1.48,4.882,1.48c1.922,0,3.631-0.549,4.851-1.464
		C37.482,26.812,38.229,25.332,38.229,23.532L38.229,23.532z M36.322,23.532c0,2.471-2.013,4.18-5.171,4.18
		c-3.173,0-5.202-1.693-5.202-4.18c0-2.411,2.12-4.18,5.202-4.18c1.388,0,2.639,0.396,3.524,1.037
		C35.773,21.198,36.322,22.251,36.322,23.532L36.322,23.532z M54.064,23.532c0-1.754-0.763-3.234-2.243-4.363
		c-1.22-0.931-2.959-1.495-4.836-1.495c-1.892,0-3.615,0.564-4.851,1.495c-1.495,1.129-2.258,2.593-2.258,4.363
		c0,1.8,0.747,3.264,2.227,4.378c1.205,0.915,2.959,1.48,4.882,1.48c1.922,0,3.631-0.549,4.851-1.464
		C53.316,26.812,54.064,25.332,54.064,23.532L54.064,23.532z M52.156,23.532c0,2.471-2.014,4.18-5.171,4.18
		c-3.173,0-5.202-1.693-5.202-4.18c0-2.411,2.12-4.18,5.202-4.18c1.388,0,2.639,0.396,3.524,1.037
		C51.607,21.198,52.156,22.251,52.156,23.532L52.156,23.532z M63.277,18.025H56.29V29.07h7.338c1.602,0,3.051-0.519,4.119-1.465
		c1.175-1.022,1.785-2.38,1.785-3.935C69.531,20.252,67.136,18.025,63.277,18.025L63.277,18.025z M63.78,27.407h-5.659v-7.719h5.309
		c2.471,0,4.119,1.586,4.119,3.936C67.549,25.835,65.977,27.407,63.78,27.407L63.78,27.407z M82.742,23.379
		c0.992-0.564,1.434-1.297,1.434-2.334c0-1.815-1.327-3.02-3.6-3.02h-8.924V29.07h8.802c2.761,0,4.18-1.007,4.18-2.898
		C84.633,24.753,83.992,23.807,82.742,23.379L82.742,23.379z M80.606,22.647h-7.124v-2.959h7.2c1.052,0,1.709,0.579,1.709,1.464
		C82.391,21.976,81.628,22.647,80.606,22.647L80.606,22.647z M80.469,27.407h-6.987V24.31h7.277c1.358,0,1.998,0.503,1.998,1.602
		C82.757,26.965,82.025,27.407,80.469,27.407L80.469,27.407z M99.201,25.5v-7.475h-1.83v7.033c0,1.709-1.51,2.67-4.409,2.67
		c-2.914,0-4.439-0.961-4.439-2.67v-7.033h-1.83V25.5c0,2.242,2.395,3.905,6.269,3.905C96.821,29.405,99.201,27.758,99.201,25.5
		L99.201,25.5z M114.334,29.07l-2.959-4.302c1.647-0.274,2.868-1.312,2.868-3.264c0-2.136-1.403-3.478-3.722-3.478h-8.711V29.07
		h1.831v-4.211h5.583l2.99,4.211H114.334L114.334,29.07z M110.245,23.197h-6.605v-3.509h6.437c1.541,0,2.288,0.595,2.288,1.815
		C112.366,22.586,111.618,23.197,110.245,23.197L110.245,23.197z M128.384,18.025h-2.273l-4.668,5.156l-4.699-5.156h-2.273
		l6.041,6.682v4.363h1.83v-4.363L128.384,18.025L128.384,18.025z M147.223,20.542c-1.449-1.876-3.646-2.868-6.361-2.868
		c-1.891,0-3.615,0.549-4.836,1.48c-1.495,1.129-2.243,2.593-2.243,4.363c0,1.8,0.732,3.28,2.212,4.393
		c1.205,0.915,2.944,1.464,4.866,1.464c2.746,0,4.683-0.747,6.285-2.624l-1.571-0.87c-1.175,1.266-2.624,1.815-4.607,1.815
		c-3.264,0-5.278-1.693-5.278-4.18c0-2.395,2.09-4.164,5.171-4.164c2.029,0,3.539,0.549,4.698,1.784L147.223,20.542L147.223,20.542z
		 M162.888,23.532c0-1.754-0.763-3.234-2.243-4.363c-1.22-0.931-2.959-1.495-4.836-1.495c-1.891,0-3.615,0.564-4.85,1.495
		c-1.495,1.129-2.258,2.593-2.258,4.363c0,1.8,0.747,3.264,2.227,4.378c1.205,0.915,2.959,1.48,4.881,1.48
		c1.922,0,3.631-0.549,4.851-1.464C162.141,26.812,162.888,25.332,162.888,23.532L162.888,23.532z M160.982,23.532
		c0,2.471-2.014,4.18-5.172,4.18c-3.172,0-5.202-1.693-5.202-4.18c0-2.411,2.12-4.18,5.202-4.18c1.389,0,2.64,0.396,3.524,1.037
		C160.432,21.198,160.982,22.251,160.982,23.532L160.982,23.532z M180.171,29.07V18.025h-2.273l-5.324,6.682l-5.309-6.682h-2.273
		V29.07h1.831v-9.031h0.046l5.689,7.2l5.736-7.2h0.046v9.031H180.171L180.171,29.07z M198.157,29.07V18.025h-2.273l-5.324,6.682
		l-5.308-6.682h-2.273V29.07h1.831v-9.031h0.046l5.69,7.2l5.736-7.2h0.046v9.031H198.157L198.157,29.07z M214.449,23.532
		c0-1.754-0.763-3.234-2.243-4.363c-1.22-0.931-2.959-1.495-4.835-1.495c-1.892,0-3.616,0.564-4.851,1.495
		c-1.495,1.129-2.258,2.593-2.258,4.363c0,1.8,0.748,3.264,2.227,4.378c1.205,0.915,2.959,1.48,4.882,1.48
		c1.922,0,3.63-0.549,4.85-1.464C213.701,26.812,214.449,25.332,214.449,23.532L214.449,23.532z M212.542,23.532
		c0,2.471-2.014,4.18-5.171,4.18c-3.173,0-5.202-1.693-5.202-4.18c0-2.411,2.121-4.18,5.202-4.18c1.388,0,2.639,0.396,3.524,1.037
		C211.993,21.198,212.542,22.251,212.542,23.532L212.542,23.532z M229.093,29.07V18.025h-1.831v9.061l-8.436-9.061h-2.273V29.07
		h1.831v-9.061l8.451,9.061H229.093L229.093,29.07z"/>
	<path style="fill:#FFFFFF;" d="M60.311,38.873l-2.215-4.187h-0.873l-2.215,4.187h0.758l0.486-0.937h2.817l0.486,0.937H60.311
		L60.311,38.873z M58.726,37.306h-2.134l1.07-2.026L58.726,37.306L58.726,37.306z M68.156,35.668l0.422-0.469
		c-0.607-0.41-1.365-0.618-2.267-0.618c-1.36,0-2.111,0.491-2.111,1.272c0,0.804,0.647,1.007,1.938,1.094
		c1.232,0.081,1.944,0.081,1.944,0.676c0,0.451-0.532,0.741-1.527,0.741c-0.764,0-1.446-0.191-2.117-0.602l-0.382,0.504
		c0.607,0.479,1.428,0.705,2.493,0.705c1.487,0,2.284-0.514,2.284-1.394c0-0.7-0.497-1.059-1.538-1.192
		c-0.851-0.11-1.539-0.058-1.996-0.22c-0.243-0.087-0.365-0.214-0.365-0.405c0-0.347,0.457-0.567,1.325-0.567
		C66.917,35.194,67.531,35.35,68.156,35.668L68.156,35.668z M71.441,38.873v-4.187h-0.694v4.187H71.441L71.441,38.873z
		 M79.424,38.873v-4.187h-0.861l-2.019,2.533l-2.014-2.533h-0.861v4.187h0.693v-3.424h0.017l2.158,2.73l2.175-2.73h0.017v3.424
		H79.424L79.424,38.873z M86.811,36.773c0-0.665-0.289-1.227-0.85-1.655c-0.463-0.353-1.122-0.566-1.834-0.566
		c-0.717,0-1.371,0.214-1.84,0.566c-0.566,0.428-0.855,0.983-0.855,1.655c0,0.683,0.283,1.238,0.844,1.661
		c0.457,0.346,1.123,0.561,1.851,0.561c0.729,0,1.377-0.208,1.84-0.555C86.527,38.017,86.811,37.456,86.811,36.773L86.811,36.773z
		 M86.088,36.773c0,0.937-0.764,1.585-1.961,1.585c-1.203,0-1.973-0.642-1.973-1.585c0-0.915,0.804-1.586,1.973-1.586
		c0.526,0,1.001,0.151,1.336,0.394C85.88,35.888,86.088,36.287,86.088,36.773L86.088,36.773z M93.573,38.873v-4.187h-0.694v3.436
		l-3.2-3.436h-0.861v4.187h0.694v-3.436l3.205,3.436H93.573L93.573,38.873z M101.683,34.685h-3.32v4.187h0.693v-1.597h2.494
		c0.995,0,1.527-0.456,1.527-1.284C103.077,35.2,102.54,34.685,101.683,34.685L101.683,34.685z M101.562,36.646h-2.506v-1.331h2.459
		c0.567,0,0.85,0.226,0.85,0.689C102.366,36.421,102.089,36.646,101.562,36.646L101.562,36.646z M109.452,38.873l-1.122-1.631
		c0.624-0.104,1.087-0.497,1.087-1.237c0-0.81-0.532-1.319-1.411-1.319h-3.303v4.187h0.693v-1.597h2.118l1.134,1.597H109.452
		L109.452,38.873z M107.902,36.646h-2.505v-1.331h2.442c0.584,0,0.868,0.226,0.868,0.689
		C108.706,36.415,108.423,36.646,107.902,36.646L107.902,36.646z M115.745,38.873v-0.63h-3.69v-1.227h2.452v-0.63h-2.452v-1.071
		h3.529v-0.63h-4.222v4.187H115.745L115.745,38.873z M123.375,38.873v-4.187h-0.861l-2.02,2.533l-2.013-2.533h-0.861v4.187h0.694
		v-3.424h0.017l2.158,2.73l2.175-2.73h0.017v3.424H123.375L123.375,38.873z M126.297,38.873v-4.187h-0.694v4.187H126.297
		L126.297,38.873z M133.238,37.52v-2.834h-0.694v2.667c0,0.648-0.573,1.012-1.672,1.012c-1.105,0-1.684-0.364-1.684-1.012v-2.667
		h-0.694v2.834c0,0.85,0.908,1.48,2.377,1.48C132.336,39,133.238,38.376,133.238,37.52L133.238,37.52z M141.192,38.873v-4.187
		h-0.861l-2.019,2.533l-2.014-2.533h-0.861v4.187h0.694v-3.424h0.017l2.158,2.73l2.175-2.73h0.017v3.424H141.192L141.192,38.873z
		 M151.142,36.773c0-0.665-0.289-1.227-0.85-1.655c-0.463-0.353-1.123-0.566-1.834-0.566c-0.717,0-1.371,0.214-1.839,0.566
		c-0.567,0.428-0.855,0.983-0.855,1.655c0,0.683,0.283,1.238,0.843,1.661c0.457,0.346,1.123,0.561,1.851,0.561
		c0.729,0,1.377-0.208,1.84-0.555C150.859,38.017,151.142,37.456,151.142,36.773L151.142,36.773z M150.419,36.773
		c0,0.937-0.763,1.585-1.962,1.585c-1.203,0-1.973-0.642-1.973-1.585c0-0.915,0.805-1.586,1.973-1.586
		c0.527,0,1.001,0.151,1.337,0.394C150.211,35.888,150.419,36.287,150.419,36.773L150.419,36.773z M157.864,37.52v-2.834h-0.694
		v2.667c0,0.648-0.573,1.012-1.672,1.012c-1.105,0-1.683-0.364-1.683-1.012v-2.667h-0.694v2.834c0,0.85,0.908,1.48,2.377,1.48
		C156.962,39,157.864,38.376,157.864,37.52L157.864,37.52z M164.089,35.315v-0.63h-4.697v0.63h2.002v3.558h0.694v-3.558H164.089
		L164.089,35.315z M169.573,38.873v-0.63h-3.234v-3.557h-0.694v4.187H169.573L169.573,38.873z M175.485,38.873v-0.63h-3.69v-1.227
		h2.453v-0.63h-2.453v-1.071h3.528v-0.63h-4.222v4.187H175.485L175.485,38.873z M181.472,35.315v-0.63h-4.696v0.63h2.002v3.558
		h0.693v-3.558H181.472L181.472,35.315z"/>
</g>
</svg>
